<svg width="100" height="100" viewBox="0 0 100 100" fill="none" xmlns="http://www.w3.org/2000/svg">
<circle cx="50" cy="50" r="50" fill="#F0C53E"/>
<path d="M27 70H35.1818V45.4H27V70ZM72 47.45C72 45.195 70.1591 43.35 67.9091 43.35H55.0023L56.9455 33.9815L57.0068 33.3255C57.0068 32.485 56.6591 31.706 56.1068 31.1525L53.9386 29L40.4795 42.5095C39.7227 43.2475 39.2727 44.2725 39.2727 45.4V65.9C39.2727 68.155 41.1136 70 43.3636 70H61.7727C63.4705 70 64.9227 68.975 65.5364 67.499L71.7136 53.0465C71.8977 52.575 72 52.083 72 51.55V47.45Z" fill="white"/>
</svg>
