<svg width="201" height="96" viewBox="0 0 201 96" fill="none" xmlns="http://www.w3.org/2000/svg">
<path d="M48.9723 3.64771C51.2583 1.57735 54.7416 1.57734 57.0277 3.64771L101.09 43.5528C103.719 45.9344 103.719 50.0656 101.09 52.4472L57.0277 92.3523C54.7417 94.4227 51.2584 94.4227 48.9723 92.3523L4.91049 52.4472C2.28072 50.0656 2.28071 45.9344 4.91048 43.5528L48.9723 3.64771Z" fill="#D10050"/>
<path d="M43.144 36.536V40.92H37.192V59H31.72V40.92H25.768V36.536H43.144ZM52.6423 44.12C53.2823 43.1387 54.0823 42.3707 55.0423 41.816C56.0023 41.24 57.0689 40.952 58.2423 40.952V46.744H56.7383C55.3729 46.744 54.3489 47.0427 53.6663 47.64C52.9836 48.216 52.6423 49.24 52.6423 50.712V59H47.1703V41.144H52.6423V44.12ZM61.0498 50.04C61.0498 48.2053 61.3911 46.5947 62.0738 45.208C62.7778 43.8213 63.7271 42.7547 64.9218 42.008C66.1164 41.2613 67.4498 40.888 68.9218 40.888C70.1804 40.888 71.2791 41.144 72.2178 41.656C73.1778 42.168 73.9138 42.84 74.4258 43.672V41.144H79.8978V59H74.4258V56.472C73.8924 57.304 73.1458 57.976 72.1858 58.488C71.2471 59 70.1484 59.256 68.8898 59.256C67.4391 59.256 66.1164 58.8827 64.9218 58.136C63.7271 57.368 62.7778 56.2907 62.0738 54.904C61.3911 53.496 61.0498 51.8747 61.0498 50.04ZM74.4258 50.072C74.4258 48.7067 74.0418 47.6293 73.2738 46.84C72.5271 46.0507 71.6098 45.656 70.5218 45.656C69.4338 45.656 68.5058 46.0507 67.7378 46.84C66.9911 47.608 66.6178 48.6747 66.6178 50.04C66.6178 51.4053 66.9911 52.4933 67.7378 53.304C68.5058 54.0933 69.4338 54.488 70.5218 54.488C71.6098 54.488 72.5271 54.0933 73.2738 53.304C74.0418 52.5147 74.4258 51.4373 74.4258 50.072ZM93.1685 53.88L97.0405 41.144H102.865L96.5285 59H89.7765L83.4405 41.144H89.2965L93.1685 53.88ZM123.28 49.784C123.28 50.296 123.248 50.8293 123.184 51.384H110.8C110.885 52.4933 111.237 53.3467 111.856 53.944C112.496 54.52 113.274 54.808 114.192 54.808C115.557 54.808 116.506 54.232 117.04 53.08H122.864C122.565 54.2533 122.021 55.3093 121.232 56.248C120.464 57.1867 119.493 57.9227 118.32 58.456C117.146 58.9893 115.834 59.256 114.384 59.256C112.634 59.256 111.077 58.8827 109.712 58.136C108.346 57.3893 107.28 56.3227 106.512 54.936C105.744 53.5493 105.36 51.928 105.36 50.072C105.36 48.216 105.733 46.5947 106.48 45.208C107.248 43.8213 108.314 42.7547 109.68 42.008C111.045 41.2613 112.613 40.888 114.384 40.888C116.112 40.888 117.648 41.2507 118.992 41.976C120.336 42.7013 121.381 43.736 122.128 45.08C122.896 46.424 123.28 47.992 123.28 49.784ZM117.68 48.344C117.68 47.4053 117.36 46.6587 116.72 46.104C116.08 45.5493 115.28 45.272 114.32 45.272C113.402 45.272 112.624 45.5387 111.984 46.072C111.365 46.6053 110.981 47.3627 110.832 48.344H117.68ZM132.919 35.32V59H127.447V35.32H132.919ZM143.636 35.32V59H138.164V35.32H143.636ZM151.633 39.288C150.673 39.288 149.884 39.0107 149.265 38.456C148.668 37.88 148.369 37.176 148.369 36.344C148.369 35.4907 148.668 34.7867 149.265 34.232C149.884 33.656 150.673 33.368 151.633 33.368C152.572 33.368 153.34 33.656 153.937 34.232C154.556 34.7867 154.865 35.4907 154.865 36.344C154.865 37.176 154.556 37.88 153.937 38.456C153.34 39.0107 152.572 39.288 151.633 39.288ZM154.353 41.144V59H148.881V41.144H154.353ZM170.479 40.952C172.57 40.952 174.234 41.6347 175.471 43C176.73 44.344 177.359 46.2 177.359 48.568V59H171.919V49.304C171.919 48.1093 171.61 47.1813 170.991 46.52C170.372 45.8587 169.54 45.528 168.495 45.528C167.45 45.528 166.618 45.8587 165.999 46.52C165.38 47.1813 165.071 48.1093 165.071 49.304V59H159.599V41.144H165.071V43.512C165.626 42.7227 166.372 42.104 167.311 41.656C168.25 41.1867 169.306 40.952 170.479 40.952ZM199.274 49.784C199.274 50.296 199.242 50.8293 199.178 51.384H186.794C186.879 52.4933 187.231 53.3467 187.85 53.944C188.49 54.52 189.268 54.808 190.186 54.808C191.551 54.808 192.5 54.232 193.034 53.08H198.858C198.559 54.2533 198.015 55.3093 197.226 56.248C196.458 57.1867 195.487 57.9227 194.314 58.456C193.14 58.9893 191.828 59.256 190.378 59.256C188.628 59.256 187.071 58.8827 185.706 58.136C184.34 57.3893 183.274 56.3227 182.506 54.936C181.738 53.5493 181.354 51.928 181.354 50.072C181.354 48.216 181.727 46.5947 182.474 45.208C183.242 43.8213 184.308 42.7547 185.674 42.008C187.039 41.2613 188.607 40.888 190.378 40.888C192.106 40.888 193.642 41.2507 194.986 41.976C196.33 42.7013 197.375 43.736 198.122 45.08C198.89 46.424 199.274 47.992 199.274 49.784ZM193.674 48.344C193.674 47.4053 193.354 46.6587 192.714 46.104C192.074 45.5493 191.274 45.272 190.314 45.272C189.396 45.272 188.618 45.5387 187.978 46.072C187.359 46.6053 186.975 47.3627 186.826 48.344H193.674Z" fill="white"/>
</svg>
