<svg width="100" height="100" viewBox="0 0 100 100" fill="none" xmlns="http://www.w3.org/2000/svg">
<circle cx="50" cy="50" r="50" fill="#FFC9D0"/>
<path d="M70.6102 42.4373L57.7196 40.5667L51.9572 28.9023C51.7998 28.583 51.5409 28.3245 51.221 28.1673C50.4189 27.7719 49.4441 28.1014 49.043 28.9023L43.2806 40.5667L30.39 42.4373C30.0346 42.488 29.7097 42.6552 29.4609 42.9087C29.1602 43.2174 28.9944 43.6326 29.0001 44.0632C29.0059 44.4938 29.1825 44.9045 29.4914 45.2051L38.8179 54.2841L36.6144 67.1043C36.5628 67.4025 36.5958 67.7092 36.7098 67.9896C36.8239 68.2701 37.0143 68.513 37.2596 68.6908C37.5048 68.8687 37.7951 68.9744 38.0974 68.9959C38.3998 69.0174 38.7021 68.9539 38.9702 68.8126L50.5001 62.7599L62.03 68.8126C62.3448 68.9799 62.7103 69.0357 63.0607 68.9748C63.9441 68.8228 64.5381 67.9863 64.3858 67.1043L62.1823 54.2841L71.5088 45.2051C71.7627 44.9567 71.9302 44.6323 71.981 44.2774C72.1181 43.3903 71.4987 42.5691 70.6102 42.4373V42.4373Z" fill="white"/>
</svg>
