<svg width="100" height="100" viewBox="0 0 100 100" fill="none" xmlns="http://www.w3.org/2000/svg">
<circle cx="50" cy="50" r="50" fill="#B25A59"/>
<path d="M49.5 73C46.4531 73 43.5381 72.4067 40.7549 71.2202C37.9717 70.0337 35.5767 68.437 33.5698 66.4302C31.563 64.4233 29.9663 62.0283 28.7798 59.2451C27.5933 56.4619 27 53.5469 27 50.5C27 47.4531 27.5933 44.5381 28.7798 41.7549C29.9663 38.9717 31.563 36.5767 33.5698 34.5698C35.5767 32.563 37.9717 30.9663 40.7549 29.7798C43.5381 28.5933 46.4531 28 49.5 28C52.5469 28 55.4619 28.5933 58.2451 29.7798C61.0283 30.9663 63.4233 32.563 65.4302 34.5698C67.437 36.5767 69.0337 38.9717 70.2202 41.7549C71.4067 44.5381 72 47.4531 72 50.5C72 53.5469 71.4067 56.4619 70.2202 59.2451C69.0337 62.0283 67.437 64.4233 65.4302 66.4302C63.4233 68.437 61.0283 70.0337 58.2451 71.2202C55.4619 72.4067 52.5469 73 49.5 73ZM39.876 40.876L37.7666 39.0303C37.4443 39.0303 37.0635 39.0669 36.624 39.1401C36.1846 39.2134 35.7891 39.25 35.4375 39.25C35.4082 39.2207 35.1445 38.6787 34.6465 37.624C31.4238 41.3447 29.8125 45.6367 29.8125 50.5C29.8125 50.5879 29.8198 50.7051 29.8345 50.8516C29.8491 50.998 29.8564 51.1006 29.8564 51.1592C30.0322 51.335 30.4644 51.6646 31.1528 52.1479C31.8413 52.6313 32.332 53.0195 32.625 53.3125H35.4375C35.5254 53.2539 35.606 53.21 35.6792 53.1807C35.7524 53.1514 35.833 53.1221 35.9209 53.0928C35.6279 52.7705 35.1958 52.2944 34.6245 51.6646C34.0532 51.0347 33.6211 50.5732 33.3281 50.2803C33.4453 49.6064 33.6064 48.5884 33.8115 47.2261C34.0166 45.8638 34.1631 44.8457 34.251 44.1719C36.7705 43.1172 38.6455 42.3408 39.876 41.8428V40.876ZM48.709 33.7129C48.2988 33.5371 47.918 33.376 47.5664 33.2295C47.4785 32.9951 47.4199 32.8193 47.3906 32.7021C47.2148 33.2588 46.9365 34.0938 46.5557 35.207C46.6729 35.2363 46.8413 35.2656 47.061 35.2949C47.2808 35.3242 47.4492 35.3535 47.5664 35.3828H48.709V33.7129ZM48.5332 54.4111C48.3867 54.5576 48.2842 54.6748 48.2256 54.7627C47.874 55.3779 47.376 56.3154 46.7314 57.5752C46.0869 58.835 45.6035 59.7725 45.2812 60.3877C45.6914 61.0029 46.314 61.9404 47.1489 63.2002C47.9839 64.46 48.6064 65.3975 49.0166 66.0127C52.8252 66.2471 55.7109 66.4229 57.6738 66.54C57.7324 67.2725 57.9668 67.7705 58.377 68.0342C61.043 66.6865 63.2988 64.8188 65.1445 62.4312C66.9902 60.0435 68.2061 57.3701 68.792 54.4111C68.2354 54.2939 67.6274 54.1328 66.9683 53.9277C66.3091 53.7227 65.833 53.5835 65.54 53.5103C65.2471 53.437 64.6685 53.3638 63.8042 53.2905C62.9399 53.2173 62.0391 53.2686 61.1016 53.4443C60.75 53.4736 60.5229 53.2466 60.4204 52.7632C60.3179 52.2798 60.2666 51.7817 60.2666 51.269C60.2666 50.7563 60.208 50.4854 60.0908 50.4561C59.4463 50.3389 58.1426 50.4487 56.1797 50.7856C54.2168 51.1226 52.9131 51.2324 52.2686 51.1152C51.8877 51.4668 50.6426 52.5654 48.5332 54.4111ZM51.126 32.3945C51.0381 32.9805 50.8843 33.8594 50.6646 35.0312C50.4448 36.2031 50.2764 37.0967 50.1592 37.7119C50.3057 37.6826 50.5474 37.646 50.8843 37.6021C51.2212 37.5581 51.4629 37.5361 51.6094 37.5361C51.5215 37.4775 51.4189 37.4189 51.3018 37.3604C51.7412 37.2139 52.0635 37.0967 52.2686 37.0088C51.7705 34.958 51.3896 33.4199 51.126 32.3945ZM56.2236 31.999C56.165 32.3213 56.1357 32.7754 56.1357 33.3613C56.1357 33.9473 55.9893 34.7236 55.6963 35.6904C55.7256 35.749 55.7842 35.8076 55.8721 35.8662C56.458 35.8076 57.4395 35.7051 58.8164 35.5586C58.8164 34.9434 59.124 34.3281 59.7393 33.7129C58.626 33.0391 57.4541 32.4678 56.2236 31.999ZM61.7168 35.0752C61.6582 35.1924 61.5557 35.3535 61.4092 35.5586C61.9658 35.6465 62.332 35.7197 62.5078 35.7783C62.1562 35.4561 61.8926 35.2217 61.7168 35.0752ZM62.9033 36.1299C62.8154 36.3057 62.6763 36.5693 62.4858 36.9209C62.2954 37.2725 62.1562 37.5361 62.0684 37.7119C61.2188 37.7412 60.0762 37.7852 58.6406 37.8438L58.4648 36.3496C58.4062 36.3789 58.3037 36.4155 58.1572 36.4595C58.0107 36.5034 57.8936 36.5254 57.8057 36.5254V38.6787C57.1904 38.7373 56.2456 38.8252 54.9712 38.9424C53.6968 39.0596 52.752 39.1475 52.1367 39.2061C51.9316 39.499 51.7119 39.8213 51.4775 40.1729C52.2686 41.8721 52.8691 43.1465 53.2793 43.9961C52.6934 44.1426 51.4922 44.4648 49.6758 44.9629V46.457C49.6758 46.5156 49.6978 46.6035 49.7417 46.7207C49.7856 46.8379 49.8223 46.9258 49.8516 46.9844C50.3496 47.2188 51.126 47.5703 52.1807 48.0391C53.2354 48.5078 54.0264 48.874 54.5537 49.1377L55.5205 47.9512C55.4912 47.6582 55.418 47.1968 55.3008 46.5669C55.1836 45.937 55.0957 45.4609 55.0371 45.1387C55.125 45.0801 55.2642 44.9995 55.4546 44.897C55.645 44.7944 55.7842 44.7139 55.8721 44.6553C56.6631 44.4209 57.2637 44.2598 57.6738 44.1719C58.0547 44.7871 58.5894 45.666 59.2778 46.8086C59.9663 47.9512 60.3984 48.6689 60.5742 48.9619C60.8379 48.7275 61.2041 48.3687 61.6729 47.8853C62.1416 47.4019 62.4932 47.043 62.7275 46.8086C61.1455 45.6953 60.1055 44.9775 59.6074 44.6553C59.6367 44.4209 59.6953 44.084 59.7832 43.6445H61.4092C63.0498 45.0508 64.7344 46.4863 66.4629 47.9512C66.4922 47.9512 66.5215 47.9292 66.5508 47.8853C66.5801 47.8413 66.6094 47.8193 66.6387 47.8193C66.5215 47.585 66.1406 46.8672 65.4961 45.666C65.4961 45.6367 65.54 45.5781 65.6279 45.4902L65.8037 45.3145H67.6055C67.6348 45.2852 67.8838 45.1533 68.3525 44.9189C67.3564 41.5205 65.54 38.5908 62.9033 36.1299Z" fill="white"/>
</svg>
